HIERARCHY
ROOT SpineBase
{
  OFFSET 0.000000 0.000000 0.000000
  CHANNELS 6 Xposition Yposition Zposition Zrotation Xrotation Yrotation
  JOINT SpineMid
  {
    OFFSET 0.000000 29.948649 0.000000
    CHANNELS 3 Zrotation Xrotation Yrotation
    JOINT SpineShoulder
    {
      OFFSET 0.015458 22.318930 -0.756471
      CHANNELS 3 Zrotation Xrotation Yrotation
      JOINT Neck
      {
        OFFSET 0.031770 7.395209 -0.577231
        CHANNELS 3 Zrotation Xrotation Yrotation
        JOINT Head
        {
          OFFSET -3.445974 9.893852 3.971403
          CHANNELS 3 Zrotation Xrotation Yrotation
          End Site
          {
            OFFSET 0 0 0
          }
        }
      }
      JOINT ShoulderLeft
      {
        OFFSET -2.520505 -6.809409 -15.242180
        CHANNELS 3 Zrotation Xrotation Yrotation
        JOINT ElbowLeft
        {
          OFFSET -2.566324 -27.223106 -2.938074
          CHANNELS 3 Zrotation Xrotation Yrotation
          JOINT WristLeft
          {
            OFFSET -2.786543 -20.145733 7.511166
            CHANNELS 3 Zrotation Xrotation Yrotation
            JOINT HandLeft
            {
              OFFSET -0.902442 -5.215423 1.495177
              CHANNELS 3 Zrotation Xrotation Yrotation
              JOINT HandTipLeft
              {
                OFFSET -2.140010 -8.122857 0.170022
                CHANNELS 3 Zrotation Xrotation Yrotation
                End Site
                {
                  OFFSET 0 0 0
                }
              }
              JOINT ThumbLeft
              {
                OFFSET 4.630741 -0.168725 -4.098655
                CHANNELS 3 Zrotation Xrotation Yrotation
                End Site
                {
                  OFFSET 0 0 0
                }
              }
            }
          }
        }
      }
      JOINT ShoulderRight
      {
        OFFSET 3.130434 -4.324643 -11.419324
        CHANNELS 3 Zrotation Xrotation Yrotation
        JOINT ElbowRight
        {
          OFFSET -5.985442 -21.750905 -7.934717
          CHANNELS 3 Zrotation Xrotation Yrotation
          JOINT WristRight
          {
            OFFSET -6.124323 -20.157359 3.883863
            CHANNELS 3 Zrotation Xrotation Yrotation
            JOINT HandRight
            {
              OFFSET -0.733322 -6.584984 4.134172
              CHANNELS 3 Zrotation Xrotation Yrotation
              JOINT HandTipRight
              {
                OFFSET -2.936589 -8.215635 1.124929
                CHANNELS 3 Zrotation Xrotation Yrotation
                End Site
                {
                  OFFSET 0 0 0
                }
              }
              JOINT ThumbRight
              {
                OFFSET -3.805285 2.479536 -3.371010
                CHANNELS 3 Zrotation Xrotation Yrotation
                End Site
                {
                  OFFSET 0 0 0
                }
              }
            }
          }
        }
      }
    }
  }
  JOINT HipLeft
  {
    OFFSET -4.713084 0.507382 -0.486716
    CHANNELS 3 Zrotation Xrotation Yrotation
    JOINT KneeLeft
    {
      OFFSET 16.219301 -41.770515 14.330948
      CHANNELS 3 Zrotation Xrotation Yrotation
      JOINT AnkleLeft
      {
        OFFSET 3.555710 -31.509128 5.727870
        CHANNELS 3 Zrotation Xrotation Yrotation
        JOINT FootLeft
        {
          OFFSET -4.759617 -2.196903 -13.159861
          CHANNELS 3 Zrotation Xrotation Yrotation
          End Site
          {
            OFFSET 0 0 0
          }
        }
      }
    }
  }
  JOINT HipRight
  {
    OFFSET 4.976198 1.302878 -6.446641
    CHANNELS 3 Zrotation Xrotation Yrotation
    JOINT KneeRight
    {
      OFFSET -1.815474 -41.658559 2.859470
      CHANNELS 3 Zrotation Xrotation Yrotation
      JOINT AnkleRight
      {
        OFFSET 4.606976 -33.688491 4.258920
        CHANNELS 3 Zrotation Xrotation Yrotation
        JOINT FootRight
        {
          OFFSET -3.830282 -6.082615 -3.492015
          CHANNELS 3 Zrotation Xrotation Yrotation
          End Site
          {
            OFFSET 0 0 0
          }
        }
      }
    }
  }
}
MOTION
Frames: 12
Frame Time: 0.033333
-30.138665 80.762247 303.055339 -0.000000 0.000000 31.595879 -0.000000 0.000000 -31.595879 -0.000000 0.000000 0.000000 -0.000000 0.000000 0.000000 0.000000 0.000000 0.000000 -0.000000 0.000000 0.000000 -0.000000 0.000000 0.000000 -0.000000 0.000000 0.000000 -0.000000 0.000000 0.000000 0.000000 0.000000 0.000000 0.000000 0.000000 0.000000 -0.000000 0.000000 0.000000 -0.000000 0.000000 0.000000 -0.000000 0.000000 0.000000 -0.000000 0.000000 0.000000 0.000000 0.000000 0.000000 0.000000 0.000000 0.000000 -0.000000 0.000000 -31.595879 -0.000000 0.000000 0.000000 -0.000000 0.000000 0.000000 0.000000 0.000000 0.000000 -0.000000 0.000000 -31.595879 -0.000000 0.000000 0.000000 -0.000000 0.000000 0.000000 0.000000 0.000000 0.000000
-30.288732 80.394260 302.914088 -0.097527 0.046043 30.607398 0.060496 -0.089284 -30.607312 -0.000000 0.000000 0.000000 -0.000000 0.000000 0.000000 0.000000 0.000000 0.000000 -0.000000 0.000000 0.000000 -0.000000 0.000000 0.000000 -0.998114 1.139815 -0.474089 0.376377 -2.881958 0.917362 0.000000 0.000000 0.000000 0.000000 0.000000 0.000000 -0.769211 0.212003 0.223133 0.768385 -0.214978 -0.220268 0.584507 -1.044910 0.486154 -0.575717 1.049778 -0.475550 0.000000 0.000000 0.000000 0.000000 0.000000 0.000000 0.060496 -0.089284 -30.607312 -0.000000 0.000000 0.000000 -0.000000 0.000000 0.000000 0.000000 0.000000 0.000000 0.060496 -0.089284 -30.607312 -0.000000 0.000000 0.000000 0.195587 1.160921 -0.841331 0.000000 0.000000 0.000000
-30.428714 80.056596 302.807211 -0.173988 0.080794 29.707264 0.111082 -0.156398 -29.706990 -0.000000 0.000000 0.000000 0.355796 1.069066 0.225137 0.000000 0.000000 0.000000 -0.000000 0.000000 0.000000 -0.000000 0.000000 0.000000 -1.740558 1.985302 -0.814316 0.678228 -5.198235 1.629334 0.000000 0.000000 0.000000 0.000000 0.000000 0.000000 -1.419713 0.398838 0.411199 1.416850 -0.408893 -0.401202 1.055554 -2.005104 0.895565 -1.024730 2.021026 -0.859017 0.000000 0.000000 0.000000 0.000000 0.000000 0.000000 0.111082 -0.156398 -29.706990 -0.000000 0.000000 0.000000 -0.242127 1.041081 -0.758239 0.000000 0.000000 0.000000 0.111082 -0.156398 -29.706990 -0.000000 0.000000 0.000000 0.447935 1.898742 -1.450045 0.000000 0.000000 0.000000
-30.558610 79.749254 302.734707 -0.230101 0.104620 28.894082 0.150906 -0.202779 -28.893605 -0.000000 0.000000 0.000000 0.499263 1.428282 0.288974 0.000000 0.000000 0.000000 -0.000000 0.000000 0.000000 -0.000000 0.000000 0.000000 -2.222295 2.519836 -1.027382 0.861462 -6.953887 2.146320 0.000000 0.000000 0.000000 0.000000 0.000000 0.000000 -1.956934 0.563034 0.564964 1.951388 -0.581971 -0.545436 1.411359 -2.886419 1.225439 -1.351082 2.915102 -1.155500 0.000000 0.000000 0.000000 0.000000 0.000000 0.000000 0.390693 -1.194453 -28.946168 -0.689835 0.751705 0.060012 -0.288477 1.331141 -1.072186 0.000000 0.000000 0.000000 0.150906 -0.202779 -28.893605 -0.000000 0.000000 0.000000 0.748044 2.232723 -1.837021 0.000000 0.000000 0.000000
-30.678420 79.472234 302.696577 -0.266452 0.117820 28.167464 0.179281 -0.229644 -28.166831 -0.000000 0.000000 0.000000 0.620232 1.669055 0.320883 0.000000 0.000000 0.000000 -0.000000 0.000000 0.000000 -0.000000 0.000000 0.000000 -2.443738 2.737674 -1.119584 0.899001 -8.160567 2.476893 0.000000 0.000000 0.000000 0.000000 0.000000 0.000000 -2.385309 0.706670 0.685058 2.376885 -0.734520 -0.655108 1.649470 -3.693915 1.472801 -1.123378 3.100046 -1.110458 0.000000 0.000000 0.000000 0.000000 0.000000 0.000000 0.429915 -1.481563 -28.266586 -0.813715 0.983887 0.110485 -0.287167 1.466482 -1.343132 0.000000 0.000000 0.000000 0.179281 -0.229644 -28.166831 -0.000000 0.000000 0.000000 1.093150 2.172792 -2.006718 0.000000 0.000000 0.000000
-30.788146 79.225537 302.692821 -0.283509 0.120628 27.528127 0.195661 -0.238003 -27.527422 -0.000000 0.000000 0.000000 0.718812 1.790310 0.321122 0.000000 0.000000 0.000000 -0.000000 0.000000 0.000000 -0.000000 0.000000 0.000000 -2.410129 2.642996 -1.096073 0.779949 -8.834499 2.630216 0.000000 0.000000 0.000000 0.000000 0.000000 0.000000 -2.708301 0.831417 0.771954 2.697163 -0.866891 -0.731891 1.766593 -4.431759 1.634318 -1.223291 3.727673 -1.207127 0.000000 0.000000 0.000000 0.000000 0.000000 0.000000 0.416820 -1.713597 -27.689753 -0.881661 1.203769 0.175360 -0.239495 1.446826 -1.571041 0.000000 0.000000 0.000000 1.060677 0.154916 -27.519207 -0.585632 -0.748124 -0.011411 1.486136 1.719332 -1.957232 0.000000 0.000000 0.000000
-30.874802 78.971882 302.699002 -0.328294 0.104430 26.649319 0.246581 -0.240584 -26.648502 -0.000000 0.000000 0.000000 1.163594 1.901256 0.174090 0.000000 0.000000 0.000000 -0.000000 0.000000 0.000000 -0.000000 0.000000 0.000000 -2.469464 2.001977 -1.012624 0.088514 -8.513290 2.531279 0.000000 0.000000 0.000000 0.000000 0.000000 0.000000 -3.197966 0.985219 0.913400 3.182374 -1.034520 -0.857159 2.013579 -4.758358 1.833765 -1.867062 4.817619 -1.671548 0.000000 0.000000 0.000000 0.000000 0.000000 0.000000 0.455168 -1.871033 -26.857842 -0.193702 -0.471841 0.142960 -0.482959 2.034378 -1.792905 0.000000 0.000000 0.000000 1.299340 0.258787 -26.639476 -0.717171 -0.918355 -0.014940 1.768304 0.706460 -1.480096 0.000000 0.000000 0.000000
-30.943153 78.762982 302.699162 -0.317144 0.068009 26.168284 0.254646 -0.200900 -26.167650 -0.000000 0.000000 0.000000 1.048657 1.530632 0.097358 0.000000 0.000000 0.000000 -0.000000 0.000000 0.000000 -0.000000 0.000000 0.000000 -2.070411 1.465920 -0.821224 0.022879 -8.266829 2.436848 0.000000 0.000000 0.000000 0.000000 0.000000 0.000000 -3.305199 1.067459 0.932521 3.288018 -1.119314 -0.869596 2.190603 -5.172436 1.998217 -1.996141 4.068350 -1.382015 0.000000 0.000000 0.000000 0.000000 0.000000 0.000000 0.332353 -1.902773 -26.462481 -0.164911 -0.035331 0.245463 -0.884535 3.107313 -1.834763 0.000000 0.000000 0.000000 1.554619 0.333907 -26.151145 -0.931321 -1.052934 -0.026572 2.762268 -0.910157 -1.010960 0.000000 0.000000 0.000000
-31.060438 78.626788 302.863859 -0.276808 -0.008482 26.252956 0.252007 -0.114835 -26.252724 -0.000000 0.000000 0.000000 -0.000000 0.000000 0.000000 0.000000 0.000000 0.000000 -0.000000 0.000000 0.000000 -0.000000 0.000000 0.000000 -1.191389 0.249623 -0.381712 0.087395 -6.699833 1.990743 0.000000 0.000000 0.000000 0.000000 0.000000 0.000000 -3.164510 1.089877 0.875182 3.148115 -1.136408 -0.813847 1.941277 -6.077973 1.938314 -1.744988 6.137005 -1.741691 0.000000 0.000000 0.000000 0.000000 0.000000 0.000000 0.111557 -2.043217 -26.698151 0.535231 -0.335017 0.426793 -1.316840 3.124279 -1.692837 0.000000 0.000000 0.000000 2.054392 0.485563 -26.223995 -1.351900 -1.334803 -0.050309 3.069575 -2.349383 -0.226553 0.000000 0.000000 0.000000
-31.193348 78.466813 303.081883 -0.196761 -0.042132 26.417640 0.194959 -0.049809 -26.417628 -0.000000 0.000000 0.000000 -0.767804 0.050855 0.326959 0.000000 0.000000 0.000000 -0.000000 0.000000 0.000000 -0.000000 0.000000 0.000000 0.644035 -0.593087 0.290445 -2.360313 -5.481789 1.204972 0.000000 0.000000 0.000000 0.000000 0.000000 0.000000 -2.730864 1.158581 0.698030 2.717135 -1.190443 -0.642180 0.354088 -6.805833 0.966400 -0.413377 5.863546 -0.594331 0.000000 0.000000 0.000000 0.000000 0.000000 0.000000 -0.259038 -2.341351 -27.086265 -0.639406 2.246893 0.671702 0.087054 0.767520 -2.103734 0.000000 0.000000 0.000000 2.597877 0.637067 -26.376520 -1.848344 -1.682320 -0.080564 3.093311 -3.823955 0.763472 0.000000 0.000000 0.000000
-31.278493 78.402734 303.311773 -0.101680 -0.141540 26.457508 0.154091 0.081414 -26.457743 -0.000000 0.000000 0.000000 -0.814233 0.285118 0.428802 0.000000 0.000000 0.000000 -0.000000 0.000000 0.000000 -0.000000 0.000000 0.000000 0.803152 -1.854632 0.562264 2.006921 -5.375244 1.522175 0.000000 0.000000 0.000000 0.000000 0.000000 0.000000 -2.338297 1.278413 0.522346 2.327144 -1.298612 -0.469878 -0.924087 -8.307177 0.267039 1.586661 6.317949 0.309686 0.000000 0.000000 0.000000 0.000000 0.000000 0.000000 -0.710977 -2.354579 -27.356942 -0.292637 4.616335 1.135230 0.911688 -3.861597 -2.659182 0.000000 0.000000 0.000000 3.031360 0.843654 -26.412966 -2.239119 -1.961460 -0.106346 1.642136 -3.215862 1.157953 0.000000 0.000000 0.000000
-31.402010 78.274272 303.702460 0.231531 0.096290 27.759862 -0.249732 0.022632 -27.760007 -0.000000 0.000000 0.000000 0.796054 1.254968 0.108118 0.000000 0.000000 0.000000 -0.000000 0.000000 0.000000 -0.000000 0.000000 0.000000 3.341846 -1.479403 1.259128 -2.264133 -5.995410 0.881916 0.000000 0.000000 0.000000 0.000000 0.000000 0.000000 -1.622641 1.121113 0.297117 2.348623 -0.195808 -0.401798 -3.521615 -10.737006 -0.770447 3.214459 7.182250 1.326350 0.000000 0.000000 0.000000 0.000000 0.000000 0.000000 -1.065018 -1.800697 -28.498070 0.069566 3.573769 0.940112 1.309952 -4.786135 -3.187972 0.000000 0.000000 0.000000 3.066009 0.742168 -27.698622 -2.076300 -1.404243 0.055675 1.366114 -5.710274 2.021344 0.000000 0.000000 0.000000
